<svg xmlns="http://www.w3.org/2000/svg" xmlns:xlink="http://www.w3.org/1999/xlink" width="500" zoomAndPan="magnify" viewBox="0 0 375 374.999991" height="500" preserveAspectRatio="xMidYMid meet" version="1.0"><defs><g/><clipPath id="bd877e70b6"><path d="M 174.761719 155.554688 L 228.996094 155.554688 L 228.996094 209.789062 L 174.761719 209.789062 Z M 174.761719 155.554688 " clip-rule="nonzero"/></clipPath><clipPath id="91fb3e3c22"><path d="M 201.878906 155.554688 C 186.902344 155.554688 174.761719 167.695312 174.761719 182.671875 C 174.761719 197.648438 186.902344 209.789062 201.878906 209.789062 C 216.855469 209.789062 228.996094 197.648438 228.996094 182.671875 C 228.996094 167.695312 216.855469 155.554688 201.878906 155.554688 Z M 201.878906 155.554688 " clip-rule="nonzero"/></clipPath><clipPath id="8c09c422fa"><path d="M 197 197 L 206 197 L 206 202.960938 L 197 202.960938 Z M 197 197 " clip-rule="nonzero"/></clipPath><clipPath id="35f6ee4ae1"><path d="M 181.210938 162.460938 L 222.460938 162.460938 L 222.460938 202 L 181.210938 202 Z M 181.210938 162.460938 " clip-rule="nonzero"/></clipPath><clipPath id="b4c0910f72"><path d="M 214 132 L 231 132 L 231 155 L 214 155 Z M 214 132 " clip-rule="nonzero"/></clipPath><clipPath id="58814165a0"><path d="M 213.285156 132.757812 L 229.710938 131.207031 L 231.898438 154.351562 L 215.472656 155.90625 Z M 213.285156 132.757812 " clip-rule="nonzero"/></clipPath><clipPath id="2b1de93c13"><path d="M 213.285156 132.757812 L 229.710938 131.207031 L 231.898438 154.351562 L 215.472656 155.90625 Z M 213.285156 132.757812 " clip-rule="nonzero"/></clipPath><clipPath id="79908b5716"><path d="M 219.257812 229.566406 L 286.066406 229.566406 L 286.066406 246.089844 L 219.257812 246.089844 Z M 219.257812 229.566406 " clip-rule="nonzero"/></clipPath><clipPath id="4a59a122e1"><path d="M 227.519531 229.566406 L 277.800781 229.566406 C 282.363281 229.566406 286.0625 233.265625 286.0625 237.828125 C 286.0625 242.390625 282.363281 246.089844 277.800781 246.089844 L 227.519531 246.089844 C 222.957031 246.089844 219.257812 242.390625 219.257812 237.828125 C 219.257812 233.265625 222.957031 229.566406 227.519531 229.566406 Z M 227.519531 229.566406 " clip-rule="nonzero"/></clipPath></defs><g fill="#bd3838" fill-opacity="1"><g transform="translate(25.704982, 212.449076)"><g><path d="M 38.40625 -58.046875 C 43.476562 -58.046875 46.457031 -56.648438 47.34375 -53.859375 C 47.78125 -52.460938 48 -50.625 48 -48.34375 C 48 -46.0625 47.757812 -44.238281 47.28125 -42.875 C 46.8125 -41.507812 46.0625 -40.535156 45.03125 -39.953125 C 43.476562 -39.066406 41.234375 -38.625 38.296875 -38.625 L 31.234375 -39.0625 L 31.234375 -9.484375 C 31.234375 -6.691406 30.882812 -4.613281 30.1875 -3.25 C 29.488281 -1.894531 28.421875 -0.992188 26.984375 -0.546875 C 25.546875 -0.109375 23.6875 0.109375 21.40625 0.109375 C 19.125 0.109375 17.300781 -0.128906 15.9375 -0.609375 C 14.582031 -1.085938 13.609375 -1.859375 13.015625 -2.921875 C 12.429688 -3.992188 12.082031 -4.96875 11.96875 -5.84375 C 11.863281 -6.726562 11.8125 -8.019531 11.8125 -9.71875 L 11.8125 -38.953125 L 7.828125 -38.953125 C 5.921875 -39.097656 4.5625 -39.539062 3.75 -40.28125 C 2.351562 -41.675781 1.65625 -44.363281 1.65625 -48.34375 C 1.65625 -54.375 3.828125 -57.390625 8.171875 -57.390625 L 11.8125 -57.390625 L 11.8125 -63.234375 C 11.8125 -68.898438 13.832031 -74.03125 17.875 -78.625 C 21.925781 -83.226562 27.773438 -85.53125 35.421875 -85.53125 C 37.117188 -85.53125 38.390625 -85.472656 39.234375 -85.359375 C 40.078125 -85.253906 41.050781 -84.90625 42.15625 -84.3125 C 44.144531 -83.351562 45.140625 -80.519531 45.140625 -75.8125 C 45.140625 -72.28125 44.515625 -69.742188 43.265625 -68.203125 C 42.234375 -67.023438 40.613281 -66.363281 38.40625 -66.21875 C 37.738281 -66.21875 36.707031 -66.21875 35.3125 -66.21875 C 32.59375 -66.21875 31.234375 -65.296875 31.234375 -63.453125 L 31.234375 -57.390625 Z M 38.40625 -58.046875 "/></g></g></g><g fill="#bd3838" fill-opacity="1"><g transform="translate(63.444462, 212.449076)"><g><path d="M 2.765625 -29.03125 C 2.765625 -37.851562 5.851562 -45.132812 12.03125 -50.875 C 18.207031 -56.613281 25.269531 -59.484375 33.21875 -59.484375 C 41.164062 -59.484375 48.191406 -56.628906 54.296875 -50.921875 C 60.398438 -45.222656 63.453125 -37.960938 63.453125 -29.140625 C 63.453125 -23.023438 61.867188 -17.59375 58.703125 -12.84375 C 55.546875 -8.101562 51.703125 -4.609375 47.171875 -2.359375 C 42.648438 -0.117188 37.960938 1 33.109375 1 C 28.253906 1 23.546875 -0.195312 18.984375 -2.59375 C 14.421875 -4.988281 10.578125 -8.519531 7.453125 -13.1875 C 4.328125 -17.863281 2.765625 -23.144531 2.765625 -29.03125 Z M 25.828125 -21.140625 C 28.179688 -19.335938 30.570312 -18.4375 33 -18.4375 C 35.425781 -18.4375 37.851562 -19.351562 40.28125 -21.1875 C 42.707031 -23.03125 43.921875 -25.753906 43.921875 -29.359375 C 43.921875 -32.960938 42.78125 -35.644531 40.5 -37.40625 C 38.21875 -39.175781 35.753906 -40.0625 33.109375 -40.0625 C 30.460938 -40.0625 28 -39.140625 25.71875 -37.296875 C 23.4375 -35.460938 22.296875 -32.757812 22.296875 -29.1875 C 22.296875 -25.625 23.472656 -22.941406 25.828125 -21.140625 Z M 25.828125 -21.140625 "/></g></g></g><g fill="#bd3838" fill-opacity="1"><g transform="translate(117.736647, 212.449076)"><g><path d="M 2.765625 -29.03125 C 2.765625 -37.851562 5.851562 -45.132812 12.03125 -50.875 C 18.207031 -56.613281 25.269531 -59.484375 33.21875 -59.484375 C 41.164062 -59.484375 48.191406 -56.628906 54.296875 -50.921875 C 60.398438 -45.222656 63.453125 -37.960938 63.453125 -29.140625 C 63.453125 -23.023438 61.867188 -17.59375 58.703125 -12.84375 C 55.546875 -8.101562 51.703125 -4.609375 47.171875 -2.359375 C 42.648438 -0.117188 37.960938 1 33.109375 1 C 28.253906 1 23.546875 -0.195312 18.984375 -2.59375 C 14.421875 -4.988281 10.578125 -8.519531 7.453125 -13.1875 C 4.328125 -17.863281 2.765625 -23.144531 2.765625 -29.03125 Z M 25.828125 -21.140625 C 28.179688 -19.335938 30.570312 -18.4375 33 -18.4375 C 35.425781 -18.4375 37.851562 -19.351562 40.28125 -21.1875 C 42.707031 -23.03125 43.921875 -25.753906 43.921875 -29.359375 C 43.921875 -32.960938 42.78125 -35.644531 40.5 -37.40625 C 38.21875 -39.175781 35.753906 -40.0625 33.109375 -40.0625 C 30.460938 -40.0625 28 -39.140625 25.71875 -37.296875 C 23.4375 -35.460938 22.296875 -32.757812 22.296875 -29.1875 C 22.296875 -25.625 23.472656 -22.941406 25.828125 -21.140625 Z M 25.828125 -21.140625 "/></g></g></g><g fill="#bd3838" fill-opacity="1"><g transform="translate(172.028833, 212.449076)"><g><path d="M 43.421875 -82.375 C 43.972656 -83.445312 44.945312 -84.203125 46.34375 -84.640625 C 47.75 -85.085938 49.609375 -85.3125 51.921875 -85.3125 C 54.242188 -85.3125 56.101562 -85.085938 57.5 -84.640625 C 58.894531 -84.203125 59.867188 -83.429688 60.421875 -82.328125 C 60.972656 -81.222656 61.300781 -80.25 61.40625 -79.40625 C 61.519531 -78.5625 61.578125 -77.289062 61.578125 -75.59375 L 61.578125 -9.71875 C 61.578125 -8.019531 61.519531 -6.75 61.40625 -5.90625 C 61.300781 -5.0625 60.953125 -4.125 60.359375 -3.09375 C 59.265625 -1.101562 56.160156 -0.109375 51.046875 -0.109375 C 45.929688 -0.109375 43.078125 -1.910156 42.484375 -5.515625 C 39.398438 -1.984375 35.097656 -0.21875 29.578125 -0.21875 C 22.953125 -0.21875 16.914062 -3.101562 11.46875 -8.875 C 6.03125 -14.65625 3.3125 -21.390625 3.3125 -29.078125 C 3.3125 -36.765625 6.050781 -43.515625 11.53125 -49.328125 C 17.007812 -55.140625 23.023438 -58.046875 29.578125 -58.046875 C 35.023438 -58.046875 39.253906 -56.207031 42.265625 -52.53125 L 42.265625 -75.703125 C 42.265625 -77.398438 42.316406 -78.671875 42.421875 -79.515625 C 42.535156 -80.359375 42.867188 -81.3125 43.421875 -82.375 Z M 25.484375 -22.390625 C 27.398438 -20.410156 29.71875 -19.421875 32.4375 -19.421875 C 35.164062 -19.421875 37.429688 -20.410156 39.234375 -22.390625 C 41.035156 -24.378906 41.9375 -26.570312 41.9375 -28.96875 C 41.9375 -31.363281 41.070312 -33.585938 39.34375 -35.640625 C 37.613281 -37.703125 35.273438 -38.734375 32.328125 -38.734375 C 29.390625 -38.734375 27.035156 -37.722656 25.265625 -35.703125 C 23.503906 -33.679688 22.625 -31.453125 22.625 -29.015625 C 22.625 -26.585938 23.578125 -24.378906 25.484375 -22.390625 Z M 25.484375 -22.390625 "/></g></g></g><g fill="#bd3838" fill-opacity="1"><g transform="translate(226.100318, 212.449076)"><g><path d="M 60.484375 -36.03125 C 60.484375 -31.507812 59.359375 -28.160156 57.109375 -25.984375 C 54.867188 -23.816406 52.382812 -22.734375 49.65625 -22.734375 L 23.5 -22.734375 C 23.5 -20.671875 24.710938 -18.941406 27.140625 -17.546875 C 29.578125 -16.148438 32.007812 -15.453125 34.4375 -15.453125 C 38.695312 -15.453125 42.039062 -15.894531 44.46875 -16.78125 L 45.6875 -17.21875 C 47.457031 -18.03125 48.929688 -18.4375 50.109375 -18.4375 C 52.460938 -18.4375 54.484375 -16.78125 56.171875 -13.46875 C 57.128906 -11.476562 57.609375 -9.785156 57.609375 -8.390625 C 57.609375 -1.835938 49.769531 1.4375 34.09375 1.4375 C 28.65625 1.4375 23.820312 0.5 19.59375 -1.375 C 15.363281 -3.25 12.070312 -5.734375 9.71875 -8.828125 C 5.082031 -14.785156 2.765625 -21.441406 2.765625 -28.796875 C 2.765625 -38.066406 5.757812 -45.476562 11.75 -51.03125 C 17.75 -56.59375 25.238281 -59.375 34.21875 -59.375 C 44.4375 -59.375 51.9375 -55.769531 56.71875 -48.5625 C 59.226562 -44.726562 60.484375 -40.550781 60.484375 -36.03125 Z M 37.1875 -32.78125 C 39.988281 -32.78125 41.390625 -33.957031 41.390625 -36.3125 C 41.390625 -38 40.742188 -39.359375 39.453125 -40.390625 C 38.160156 -41.421875 36.316406 -41.9375 33.921875 -41.9375 C 31.535156 -41.9375 29.164062 -40.960938 26.8125 -39.015625 C 24.457031 -37.066406 23.28125 -34.988281 23.28125 -32.78125 Z M 37.1875 -32.78125 "/></g></g></g><g fill="#bd3838" fill-opacity="1"><g transform="translate(277.41301, 212.449076)"><g><path d="M 60.484375 -36.03125 C 60.484375 -31.507812 59.359375 -28.160156 57.109375 -25.984375 C 54.867188 -23.816406 52.382812 -22.734375 49.65625 -22.734375 L 23.5 -22.734375 C 23.5 -20.671875 24.710938 -18.941406 27.140625 -17.546875 C 29.578125 -16.148438 32.007812 -15.453125 34.4375 -15.453125 C 38.695312 -15.453125 42.039062 -15.894531 44.46875 -16.78125 L 45.6875 -17.21875 C 47.457031 -18.03125 48.929688 -18.4375 50.109375 -18.4375 C 52.460938 -18.4375 54.484375 -16.78125 56.171875 -13.46875 C 57.128906 -11.476562 57.609375 -9.785156 57.609375 -8.390625 C 57.609375 -1.835938 49.769531 1.4375 34.09375 1.4375 C 28.65625 1.4375 23.820312 0.5 19.59375 -1.375 C 15.363281 -3.25 12.070312 -5.734375 9.71875 -8.828125 C 5.082031 -14.785156 2.765625 -21.441406 2.765625 -28.796875 C 2.765625 -38.066406 5.757812 -45.476562 11.75 -51.03125 C 17.75 -56.59375 25.238281 -59.375 34.21875 -59.375 C 44.4375 -59.375 51.9375 -55.769531 56.71875 -48.5625 C 59.226562 -44.726562 60.484375 -40.550781 60.484375 -36.03125 Z M 37.1875 -32.78125 C 39.988281 -32.78125 41.390625 -33.957031 41.390625 -36.3125 C 41.390625 -38 40.742188 -39.359375 39.453125 -40.390625 C 38.160156 -41.421875 36.316406 -41.9375 33.921875 -41.9375 C 31.535156 -41.9375 29.164062 -40.960938 26.8125 -39.015625 C 24.457031 -37.066406 23.28125 -34.988281 23.28125 -32.78125 Z M 37.1875 -32.78125 "/></g></g></g><g clip-path="url(#bd877e70b6)"><g clip-path="url(#91fb3e3c22)"><path fill="#bd3838" d="M 174.761719 155.554688 L 228.996094 155.554688 L 228.996094 209.789062 L 174.761719 209.789062 Z M 174.761719 155.554688 " fill-opacity="1" fill-rule="nonzero"/></g></g><path fill="#ffffff" d="M 215.257812 182.621094 C 215.261719 179.484375 214.15625 176.445312 212.136719 174.042969 C 210.121094 171.636719 207.320312 170.019531 204.226562 169.476562 C 201.132812 168.9375 197.949219 169.503906 195.234375 171.078125 C 192.519531 172.652344 190.441406 175.136719 189.378906 178.085938 C 188.3125 181.039062 188.324219 184.273438 189.410156 187.222656 C 190.492188 190.164062 192.582031 192.636719 195.304688 194.191406 C 195.546875 192.007812 195.628906 189.8125 195.554688 187.617188 C 195.515625 186.113281 195.210938 185.246094 194.097656 184.449219 C 192.890625 183.589844 192.664062 182.90625 192.757812 181.796875 L 193.375 174.753906 C 193.390625 174.542969 193.558594 174.371094 193.769531 174.351562 C 193.890625 174.34375 194.011719 174.390625 194.097656 174.476562 C 194.183594 174.558594 194.230469 174.679688 194.222656 174.804688 L 193.8125 181.375 C 193.804688 181.492188 193.847656 181.605469 193.925781 181.691406 C 194.007812 181.777344 194.121094 181.824219 194.238281 181.824219 L 194.402344 181.824219 C 194.632812 181.824219 194.816406 181.644531 194.828125 181.417969 L 195.078125 174.761719 C 195.085938 174.53125 195.273438 174.347656 195.5 174.347656 L 195.503906 174.347656 C 195.617188 174.347656 195.726562 174.394531 195.804688 174.476562 C 195.882812 174.558594 195.929688 174.667969 195.925781 174.78125 L 195.84375 181.394531 C 195.84375 181.507812 195.886719 181.617188 195.964844 181.699219 C 196.050781 181.777344 196.15625 181.824219 196.269531 181.824219 L 196.4375 181.824219 C 196.550781 181.824219 196.660156 181.777344 196.738281 181.699219 C 196.820312 181.617188 196.867188 181.507812 196.863281 181.394531 L 196.78125 174.78125 C 196.78125 174.667969 196.824219 174.558594 196.902344 174.476562 C 196.984375 174.394531 197.089844 174.347656 197.207031 174.347656 C 197.433594 174.347656 197.621094 174.53125 197.632812 174.761719 L 197.882812 181.417969 C 197.890625 181.644531 198.074219 181.824219 198.304688 181.824219 L 198.472656 181.824219 C 198.585938 181.824219 198.703125 181.777344 198.78125 181.691406 C 198.863281 181.605469 198.902344 181.492188 198.894531 181.375 L 198.484375 174.804688 C 198.476562 174.679688 198.523438 174.558594 198.609375 174.476562 C 198.695312 174.390625 198.816406 174.34375 198.9375 174.351562 C 199.148438 174.371094 199.316406 174.542969 199.332031 174.753906 L 199.949219 181.796875 C 200.046875 182.90625 199.820312 183.589844 198.613281 184.453125 C 197.496094 185.246094 197.195312 186.113281 197.152344 187.617188 C 197.066406 190.15625 197.1875 192.691406 197.527344 195.210938 C 200.042969 196.09375 202.773438 196.199219 205.351562 195.511719 C 205.667969 192.679688 206.035156 189.425781 206.070312 186.550781 C 206.078125 185.476562 205.429688 184.691406 204.808594 184.011719 C 203.859375 182.96875 202.734375 181.691406 202.734375 179.539062 C 202.734375 176.671875 204.609375 174.347656 206.925781 174.347656 C 209.234375 174.347656 211.109375 176.671875 211.109375 179.539062 C 211.109375 181.691406 209.980469 182.96875 209.035156 184.011719 C 208.417969 184.691406 207.761719 185.476562 207.777344 186.550781 C 207.804688 189.023438 208.082031 191.777344 208.359375 194.300781 C 210.449219 193.148438 212.191406 191.457031 213.40625 189.402344 C 214.617188 187.347656 215.257812 185.007812 215.257812 182.621094 " fill-opacity="1" fill-rule="nonzero"/><g clip-path="url(#8c09c422fa)"><path fill="#ffffff" d="M 201.921875 197.660156 C 200.523438 197.660156 199.136719 197.464844 197.789062 197.078125 C 198.070312 198.855469 198.238281 200.652344 198.28125 202.453125 C 200.507812 202.863281 202.789062 202.894531 205.03125 202.542969 C 204.984375 202.371094 204.949219 202.199219 204.921875 202.027344 C 204.789062 201.105469 204.929688 199.398438 205.152344 197.308594 C 204.089844 197.542969 203.007812 197.660156 201.921875 197.660156 " fill-opacity="1" fill-rule="nonzero"/></g><g clip-path="url(#35f6ee4ae1)"><path fill="#ffffff" d="M 201.921875 162.460938 C 197.234375 162.460938 192.695312 164.09375 189.078125 167.082031 C 185.46875 170.066406 183.003906 174.21875 182.125 178.824219 C 181.238281 183.429688 181.988281 188.195312 184.242188 192.308594 C 186.496094 196.417969 190.105469 199.621094 194.464844 201.351562 C 194.570312 199.308594 194.832031 197.726562 195.070312 196.003906 C 192.058594 194.460938 189.65625 191.949219 188.25 188.871094 C 186.839844 185.789062 186.515625 182.324219 187.320312 179.035156 C 188.128906 175.75 190.019531 172.828125 192.695312 170.75 C 195.367188 168.671875 198.664062 167.554688 202.050781 167.582031 C 205.4375 167.613281 208.710938 168.777344 211.347656 170.902344 C 213.988281 173.019531 215.832031 175.972656 216.585938 179.273438 C 217.339844 182.574219 216.960938 186.03125 215.503906 189.085938 C 214.046875 192.144531 211.601562 194.621094 208.5625 196.113281 C 208.8125 197.90625 208.945312 199.710938 208.964844 201.515625 C 213.398438 199.867188 217.101562 196.714844 219.445312 192.605469 C 221.78125 188.496094 222.605469 183.695312 221.765625 179.046875 C 220.925781 174.394531 218.480469 170.1875 214.855469 167.152344 C 211.226562 164.121094 206.648438 162.460938 201.921875 162.460938 " fill-opacity="1" fill-rule="nonzero"/></g><g clip-path="url(#b4c0910f72)"><g clip-path="url(#58814165a0)"><g clip-path="url(#2b1de93c13)"><path fill="#bd3838" d="M 223.351562 144.042969 C 224.578125 143.035156 226.058594 142.191406 227.640625 142.253906 C 229.222656 142.320312 230.824219 143.609375 230.742188 145.191406 C 230.695312 146.050781 230.179688 146.828125 229.523438 147.382812 C 228.867188 147.9375 228.074219 148.300781 227.292969 148.65625 C 225.929688 149.28125 224.5625 149.90625 223.199219 150.527344 C 221.945312 151.101562 220.453125 152.117188 219.109375 152.398438 C 217.550781 152.722656 218.515625 150.871094 218.835938 150.109375 C 219.304688 148.996094 219.902344 147.941406 220.609375 146.964844 C 221.375 145.90625 222.292969 144.820312 223.351562 144.042969 Z M 224.601562 152.484375 C 223.910156 152.738281 222.0625 153.367188 221.753906 154.101562 C 221.386719 154.976562 223.757812 154.378906 224.300781 154.320312 C 225.550781 154.1875 226.804688 154.058594 228.058594 153.925781 C 228.378906 153.894531 228.703125 153.859375 228.992188 153.726562 C 229.285156 153.59375 229.542969 153.34375 229.601562 153.03125 C 229.679688 152.617188 229.386719 152.207031 229.011719 152.015625 C 228.636719 151.828125 228.199219 151.820312 227.78125 151.835938 C 226.691406 151.902344 225.625 152.105469 224.601562 152.484375 Z M 214.632812 145.117188 C 214.710938 146.441406 214.746094 148.210938 215.089844 149.683594 C 215.207031 150.183594 215.90625 150.214844 216.0625 149.722656 C 216.46875 148.441406 217.097656 146.578125 218.34375 144.445312 C 219.785156 141.984375 221.84375 139.78125 222.40625 136.984375 C 222.675781 135.65625 222.5625 134.113281 221.585938 133.175781 C 220.710938 132.335938 219.3125 132.195312 218.195312 132.65625 C 217.078125 133.121094 216.230469 134.097656 215.714844 135.191406 C 215.15625 136.371094 214.945312 137.6875 214.792969 138.980469 C 214.554688 141.019531 214.511719 143.070312 214.632812 145.117188 Z M 214.632812 145.117188 " fill-opacity="1" fill-rule="nonzero"/></g></g></g><g clip-path="url(#79908b5716)"><g clip-path="url(#4a59a122e1)"><path fill="#bd3838" d="M 219.257812 229.566406 L 286.066406 229.566406 L 286.066406 246.089844 L 219.257812 246.089844 Z M 219.257812 229.566406 " fill-opacity="1" fill-rule="nonzero"/></g></g><g fill="#bd3838" fill-opacity="1"><g transform="translate(91.637862, 241.822001)"><g><path d="M 5.96875 -2.296875 L 6.1875 -2.453125 C 6.457031 -2.617188 6.648438 -2.703125 6.765625 -2.703125 C 7.003906 -2.703125 7.269531 -2.476562 7.5625 -2.03125 C 7.738281 -1.75 7.828125 -1.523438 7.828125 -1.359375 C 7.828125 -1.191406 7.769531 -1.050781 7.65625 -0.9375 C 7.550781 -0.820312 7.425781 -0.71875 7.28125 -0.625 C 7.144531 -0.539062 7.007812 -0.457031 6.875 -0.375 C 6.738281 -0.300781 6.46875 -0.195312 6.0625 -0.0625 C 5.65625 0.0625 5.257812 0.125 4.875 0.125 C 4.5 0.125 4.117188 0.0703125 3.734375 -0.03125 C 3.347656 -0.132812 2.945312 -0.300781 2.53125 -0.53125 C 2.125 -0.769531 1.753906 -1.054688 1.421875 -1.390625 C 1.097656 -1.734375 0.828125 -2.171875 0.609375 -2.703125 C 0.398438 -3.234375 0.296875 -3.8125 0.296875 -4.4375 C 0.296875 -5.0625 0.398438 -5.625 0.609375 -6.125 C 0.816406 -6.632812 1.082031 -7.054688 1.40625 -7.390625 C 1.726562 -7.722656 2.097656 -8 2.515625 -8.21875 C 3.296875 -8.65625 4.082031 -8.875 4.875 -8.875 C 5.25 -8.875 5.628906 -8.8125 6.015625 -8.6875 C 6.410156 -8.570312 6.707031 -8.457031 6.90625 -8.34375 L 7.1875 -8.171875 C 7.332031 -8.085938 7.445312 -8.015625 7.53125 -7.953125 C 7.738281 -7.785156 7.84375 -7.597656 7.84375 -7.390625 C 7.84375 -7.179688 7.757812 -6.957031 7.59375 -6.71875 C 7.28125 -6.289062 7 -6.078125 6.75 -6.078125 C 6.601562 -6.078125 6.398438 -6.164062 6.140625 -6.34375 C 5.796875 -6.613281 5.347656 -6.75 4.796875 -6.75 C 4.273438 -6.75 3.765625 -6.566406 3.265625 -6.203125 C 3.023438 -6.023438 2.820312 -5.773438 2.65625 -5.453125 C 2.5 -5.140625 2.421875 -4.78125 2.421875 -4.375 C 2.421875 -3.976562 2.5 -3.617188 2.65625 -3.296875 C 2.820312 -2.972656 3.023438 -2.722656 3.265625 -2.546875 C 3.753906 -2.191406 4.265625 -2.015625 4.796875 -2.015625 C 5.046875 -2.015625 5.28125 -2.046875 5.5 -2.109375 C 5.71875 -2.171875 5.875 -2.234375 5.96875 -2.296875 Z M 5.96875 -2.296875 "/></g></g></g><g fill="#bd3838" fill-opacity="1"><g transform="translate(99.772261, 241.822001)"><g><path d="M 4.609375 -8.890625 C 5.785156 -8.890625 6.804688 -8.460938 7.671875 -7.609375 C 8.546875 -6.753906 8.984375 -5.691406 8.984375 -4.421875 C 8.984375 -3.160156 8.566406 -2.082031 7.734375 -1.1875 C 6.910156 -0.300781 5.890625 0.140625 4.671875 0.140625 C 3.460938 0.140625 2.429688 -0.296875 1.578125 -1.171875 C 0.722656 -2.054688 0.296875 -3.101562 0.296875 -4.3125 C 0.296875 -4.976562 0.414062 -5.597656 0.65625 -6.171875 C 0.894531 -6.753906 1.210938 -7.238281 1.609375 -7.625 C 2.015625 -8.019531 2.476562 -8.328125 3 -8.546875 C 3.519531 -8.773438 4.054688 -8.890625 4.609375 -8.890625 Z M 2.421875 -4.375 C 2.421875 -3.664062 2.648438 -3.085938 3.109375 -2.640625 C 3.566406 -2.203125 4.078125 -1.984375 4.640625 -1.984375 C 5.210938 -1.984375 5.722656 -2.195312 6.171875 -2.625 C 6.628906 -3.050781 6.859375 -3.628906 6.859375 -4.359375 C 6.859375 -5.085938 6.628906 -5.671875 6.171875 -6.109375 C 5.710938 -6.546875 5.195312 -6.765625 4.625 -6.765625 C 4.0625 -6.765625 3.550781 -6.539062 3.09375 -6.09375 C 2.644531 -5.65625 2.421875 -5.082031 2.421875 -4.375 Z M 2.421875 -4.375 "/></g></g></g><g fill="#bd3838" fill-opacity="1"><g transform="translate(109.056737, 241.822001)"><g><path d="M 6.21875 -8.453125 C 6.300781 -8.585938 6.414062 -8.675781 6.5625 -8.71875 C 6.71875 -8.769531 6.910156 -8.796875 7.140625 -8.796875 C 7.367188 -8.796875 7.550781 -8.773438 7.6875 -8.734375 C 7.820312 -8.691406 7.921875 -8.644531 7.984375 -8.59375 C 8.054688 -8.539062 8.113281 -8.457031 8.15625 -8.34375 C 8.195312 -8.207031 8.21875 -8 8.21875 -7.71875 L 8.21875 -4.09375 C 8.21875 -3.039062 7.890625 -2.082031 7.234375 -1.21875 C 6.921875 -0.8125 6.507812 -0.484375 6 -0.234375 C 5.5 0.015625 4.941406 0.140625 4.328125 0.140625 C 3.722656 0.140625 3.171875 0.015625 2.671875 -0.234375 C 2.171875 -0.492188 1.765625 -0.832031 1.453125 -1.25 C 0.804688 -2.09375 0.484375 -3.050781 0.484375 -4.125 L 0.484375 -7.734375 C 0.484375 -7.921875 0.488281 -8.0625 0.5 -8.15625 C 0.507812 -8.25 0.546875 -8.351562 0.609375 -8.46875 C 0.671875 -8.59375 0.773438 -8.675781 0.921875 -8.71875 C 1.078125 -8.769531 1.28125 -8.796875 1.53125 -8.796875 C 1.789062 -8.796875 2 -8.769531 2.15625 -8.71875 C 2.3125 -8.675781 2.414062 -8.59375 2.46875 -8.46875 C 2.5625 -8.289062 2.609375 -8.039062 2.609375 -7.71875 L 2.609375 -4.125 C 2.609375 -3.632812 2.726562 -3.171875 2.96875 -2.734375 C 3.09375 -2.503906 3.273438 -2.320312 3.515625 -2.1875 C 3.753906 -2.050781 4.035156 -1.984375 4.359375 -1.984375 C 4.941406 -1.984375 5.375 -2.195312 5.65625 -2.625 C 5.945312 -3.0625 6.09375 -3.566406 6.09375 -4.140625 L 6.09375 -7.796875 C 6.09375 -8.109375 6.132812 -8.328125 6.21875 -8.453125 Z M 6.21875 -8.453125 "/></g></g></g><g fill="#bd3838" fill-opacity="1"><g transform="translate(117.754201, 241.822001)"><g><path d="M 7.203125 -1.484375 C 7.316406 -1.191406 7.375 -0.984375 7.375 -0.859375 C 7.375 -0.554688 7.128906 -0.300781 6.640625 -0.09375 C 6.378906 0.0195312 6.171875 0.078125 6.015625 0.078125 C 5.859375 0.078125 5.726562 0.0390625 5.625 -0.03125 C 5.53125 -0.113281 5.460938 -0.195312 5.421875 -0.28125 C 5.335938 -0.425781 5.023438 -1.144531 4.484375 -2.4375 L 4.109375 -2.421875 L 2.59375 -2.421875 L 2.59375 -1.0625 C 2.59375 -0.882812 2.585938 -0.75 2.578125 -0.65625 C 2.566406 -0.5625 2.53125 -0.453125 2.46875 -0.328125 C 2.351562 -0.117188 2.039062 -0.015625 1.53125 -0.015625 C 0.96875 -0.015625 0.640625 -0.160156 0.546875 -0.453125 C 0.503906 -0.585938 0.484375 -0.796875 0.484375 -1.078125 L 0.484375 -7.734375 C 0.484375 -7.910156 0.488281 -8.046875 0.5 -8.140625 C 0.507812 -8.234375 0.546875 -8.34375 0.609375 -8.46875 C 0.722656 -8.675781 1.035156 -8.78125 1.546875 -8.78125 L 4.140625 -8.78125 C 4.835938 -8.78125 5.519531 -8.523438 6.1875 -8.015625 C 6.5 -7.765625 6.757812 -7.425781 6.96875 -7 C 7.175781 -6.582031 7.28125 -6.113281 7.28125 -5.59375 C 7.28125 -4.695312 6.984375 -3.957031 6.390625 -3.375 C 6.566406 -2.945312 6.835938 -2.316406 7.203125 -1.484375 Z M 2.59375 -4.546875 L 4.140625 -4.546875 C 4.367188 -4.546875 4.597656 -4.628906 4.828125 -4.796875 C 5.054688 -4.972656 5.171875 -5.238281 5.171875 -5.59375 C 5.171875 -5.945312 5.054688 -6.210938 4.828125 -6.390625 C 4.597656 -6.566406 4.359375 -6.65625 4.109375 -6.65625 L 2.59375 -6.65625 Z M 2.59375 -4.546875 "/></g></g></g><g fill="#bd3838" fill-opacity="1"><g transform="translate(125.313562, 241.822001)"><g><path d="M 1.046875 -8.796875 L 7.71875 -8.796875 C 7.96875 -8.796875 8.15625 -8.765625 8.28125 -8.703125 C 8.40625 -8.640625 8.484375 -8.546875 8.515625 -8.421875 C 8.554688 -8.296875 8.578125 -8.128906 8.578125 -7.921875 C 8.578125 -7.710938 8.554688 -7.546875 8.515625 -7.421875 C 8.484375 -7.296875 8.414062 -7.210938 8.3125 -7.171875 C 8.164062 -7.097656 7.960938 -7.0625 7.703125 -7.0625 L 5.421875 -7.0625 L 5.421875 -1.03125 C 5.421875 -0.84375 5.410156 -0.703125 5.390625 -0.609375 C 5.378906 -0.523438 5.34375 -0.425781 5.28125 -0.3125 C 5.226562 -0.195312 5.125 -0.113281 4.96875 -0.0625 C 4.820312 -0.0195312 4.625 0 4.375 0 C 4.125 0 3.925781 -0.0195312 3.78125 -0.0625 C 3.632812 -0.113281 3.53125 -0.195312 3.46875 -0.3125 C 3.40625 -0.425781 3.367188 -0.53125 3.359375 -0.625 C 3.347656 -0.71875 3.34375 -0.859375 3.34375 -1.046875 L 3.34375 -7.0625 L 1.046875 -7.0625 C 0.785156 -7.0625 0.59375 -7.085938 0.46875 -7.140625 C 0.351562 -7.203125 0.273438 -7.296875 0.234375 -7.421875 C 0.203125 -7.554688 0.1875 -7.726562 0.1875 -7.9375 C 0.1875 -8.144531 0.203125 -8.304688 0.234375 -8.421875 C 0.273438 -8.546875 0.34375 -8.632812 0.4375 -8.6875 C 0.582031 -8.757812 0.785156 -8.796875 1.046875 -8.796875 Z M 1.046875 -8.796875 "/></g></g></g><g fill="#ffffff" fill-opacity="1"><g transform="translate(229.285794, 240.074924)"><g><path d="M 4.765625 0 L 0.71875 0 L 0.71875 -6.28125 L 4.765625 -6.28125 L 4.765625 -5.609375 L 1.4375 -5.609375 L 1.4375 -3.5 L 4.578125 -3.5 L 4.578125 -2.828125 L 1.4375 -2.828125 L 1.4375 -0.671875 L 4.765625 -0.671875 Z M 4.765625 0 "/></g></g></g><g fill="#ffffff" fill-opacity="1"><g transform="translate(234.541986, 240.074924)"><g><path d="M 2.78125 0.09375 C 2.300781 0.09375 1.878906 0.00390625 1.515625 -0.171875 C 1.160156 -0.347656 0.882812 -0.582031 0.6875 -0.875 C 0.5 -1.175781 0.40625 -1.5 0.40625 -1.84375 L 1.125 -1.84375 C 1.125 -1.613281 1.1875 -1.398438 1.3125 -1.203125 C 1.445312 -1.015625 1.640625 -0.863281 1.890625 -0.75 C 2.140625 -0.632812 2.4375 -0.578125 2.78125 -0.578125 C 3.3125 -0.578125 3.707031 -0.679688 3.96875 -0.890625 C 4.226562 -1.097656 4.359375 -1.367188 4.359375 -1.703125 C 4.359375 -1.972656 4.265625 -2.195312 4.078125 -2.375 C 3.898438 -2.550781 3.632812 -2.671875 3.28125 -2.734375 L 2.0625 -2.96875 C 1.039062 -3.15625 0.53125 -3.691406 0.53125 -4.578125 C 0.53125 -4.929688 0.617188 -5.238281 0.796875 -5.5 C 0.972656 -5.769531 1.222656 -5.984375 1.546875 -6.140625 C 1.878906 -6.296875 2.257812 -6.375 2.6875 -6.375 C 3.15625 -6.375 3.566406 -6.285156 3.921875 -6.109375 C 4.273438 -5.941406 4.546875 -5.710938 4.734375 -5.421875 C 4.929688 -5.128906 5.03125 -4.804688 5.03125 -4.453125 L 4.3125 -4.453125 C 4.3125 -4.671875 4.242188 -4.875 4.109375 -5.0625 C 3.984375 -5.257812 3.800781 -5.414062 3.5625 -5.53125 C 3.320312 -5.644531 3.03125 -5.703125 2.6875 -5.703125 C 2.238281 -5.703125 1.882812 -5.597656 1.625 -5.390625 C 1.375 -5.179688 1.25 -4.910156 1.25 -4.578125 C 1.25 -4.328125 1.332031 -4.113281 1.5 -3.9375 C 1.675781 -3.769531 1.941406 -3.65625 2.296875 -3.59375 L 3.28125 -3.40625 C 3.90625 -3.300781 4.359375 -3.109375 4.640625 -2.828125 C 4.929688 -2.554688 5.078125 -2.179688 5.078125 -1.703125 C 5.078125 -1.359375 4.988281 -1.050781 4.8125 -0.78125 C 4.632812 -0.507812 4.367188 -0.296875 4.015625 -0.140625 C 3.671875 0.015625 3.257812 0.09375 2.78125 0.09375 Z M 2.78125 0.09375 "/></g></g></g><g fill="#ffffff" fill-opacity="1"><g transform="translate(240.067724, 240.074924)"><g><path d="M 3.015625 0 L 2.296875 0 L 2.296875 -5.609375 L 0.21875 -5.609375 L 0.21875 -6.28125 L 5.078125 -6.28125 L 5.078125 -5.609375 L 3.015625 -5.609375 Z M 3.015625 0 "/></g></g></g><g fill="#ffffff" fill-opacity="1"><g transform="translate(245.368839, 240.074924)"><g><path d="M 0.71875 0 L 0.71875 -6.28125 L 2.828125 -6.28125 C 3.398438 -6.28125 3.914062 -6.144531 4.375 -5.875 C 4.832031 -5.613281 5.191406 -5.242188 5.453125 -4.765625 C 5.710938 -4.285156 5.84375 -3.742188 5.84375 -3.140625 C 5.84375 -2.535156 5.710938 -1.992188 5.453125 -1.515625 C 5.191406 -1.035156 4.832031 -0.660156 4.375 -0.390625 C 3.914062 -0.128906 3.398438 0 2.828125 0 Z M 2.828125 -0.671875 C 3.265625 -0.671875 3.65625 -0.773438 4 -0.984375 C 4.34375 -1.191406 4.613281 -1.484375 4.8125 -1.859375 C 5.019531 -2.234375 5.125 -2.660156 5.125 -3.140625 C 5.125 -3.628906 5.019531 -4.0625 4.8125 -4.4375 C 4.613281 -4.8125 4.34375 -5.097656 4 -5.296875 C 3.65625 -5.503906 3.265625 -5.609375 2.828125 -5.609375 L 1.4375 -5.609375 L 1.4375 -0.671875 Z M 2.828125 -0.671875 "/></g></g></g><g fill="#ffffff" fill-opacity="1"><g transform="translate(251.658296, 240.074924)"><g><path d="M 1.34375 0 L 0.53125 0 L 0.53125 -0.8125 L 1.34375 -0.8125 Z M 1.34375 0 "/></g></g></g><g fill="#ffffff" fill-opacity="1"><g transform="translate(253.545135, 240.074924)"><g/></g></g><g fill="#ffffff" fill-opacity="1"><g transform="translate(255.611676, 240.074924)"><g><path d="M 0.5 0 L 0.5 -0.578125 L 3.046875 -3.328125 C 3.242188 -3.523438 3.382812 -3.707031 3.46875 -3.875 C 3.550781 -4.050781 3.59375 -4.253906 3.59375 -4.484375 C 3.59375 -4.847656 3.476562 -5.140625 3.25 -5.359375 C 3.03125 -5.585938 2.738281 -5.703125 2.375 -5.703125 C 2.15625 -5.703125 1.953125 -5.644531 1.765625 -5.53125 C 1.578125 -5.414062 1.429688 -5.253906 1.328125 -5.046875 C 1.222656 -4.847656 1.171875 -4.617188 1.171875 -4.359375 L 0.453125 -4.359375 C 0.453125 -4.742188 0.53125 -5.085938 0.6875 -5.390625 C 0.851562 -5.703125 1.082031 -5.941406 1.375 -6.109375 C 1.675781 -6.285156 2.007812 -6.375 2.375 -6.375 C 2.75 -6.375 3.082031 -6.296875 3.375 -6.140625 C 3.664062 -5.984375 3.894531 -5.757812 4.0625 -5.46875 C 4.226562 -5.1875 4.3125 -4.859375 4.3125 -4.484375 C 4.3125 -4.140625 4.25 -3.84375 4.125 -3.59375 C 4 -3.34375 3.804688 -3.085938 3.546875 -2.828125 L 1.53125 -0.71875 L 1.53125 -0.671875 L 4.453125 -0.671875 L 4.453125 0 Z M 0.5 0 "/></g></g></g><g fill="#ffffff" fill-opacity="1"><g transform="translate(260.418619, 240.074924)"><g><path d="M 2.921875 0.09375 C 2.472656 0.09375 2.066406 -0.03125 1.703125 -0.28125 C 1.335938 -0.539062 1.046875 -0.910156 0.828125 -1.390625 C 0.609375 -1.878906 0.5 -2.460938 0.5 -3.140625 C 0.5 -3.816406 0.609375 -4.398438 0.828125 -4.890625 C 1.046875 -5.378906 1.335938 -5.75 1.703125 -6 C 2.066406 -6.25 2.472656 -6.375 2.921875 -6.375 C 3.359375 -6.375 3.757812 -6.25 4.125 -6 C 4.5 -5.75 4.796875 -5.378906 5.015625 -4.890625 C 5.234375 -4.398438 5.34375 -3.816406 5.34375 -3.140625 C 5.34375 -2.460938 5.234375 -1.878906 5.015625 -1.390625 C 4.796875 -0.910156 4.5 -0.539062 4.125 -0.28125 C 3.757812 -0.03125 3.359375 0.09375 2.921875 0.09375 Z M 2.921875 -0.578125 C 3.222656 -0.578125 3.503906 -0.675781 3.765625 -0.875 C 4.023438 -1.070312 4.234375 -1.363281 4.390625 -1.75 C 4.546875 -2.132812 4.625 -2.597656 4.625 -3.140625 C 4.625 -3.691406 4.546875 -4.160156 4.390625 -4.546875 C 4.234375 -4.929688 4.023438 -5.21875 3.765625 -5.40625 C 3.503906 -5.601562 3.222656 -5.703125 2.921875 -5.703125 C 2.617188 -5.703125 2.335938 -5.601562 2.078125 -5.40625 C 1.816406 -5.21875 1.609375 -4.929688 1.453125 -4.546875 C 1.296875 -4.160156 1.21875 -3.691406 1.21875 -3.140625 C 1.21875 -2.597656 1.296875 -2.132812 1.453125 -1.75 C 1.609375 -1.363281 1.816406 -1.070312 2.078125 -0.875 C 2.335938 -0.675781 2.617188 -0.578125 2.921875 -0.578125 Z M 2.921875 -0.578125 "/></g></g></g><g fill="#ffffff" fill-opacity="1"><g transform="translate(266.258827, 240.074924)"><g><path d="M 0.5 0 L 0.5 -0.578125 L 3.046875 -3.328125 C 3.242188 -3.523438 3.382812 -3.707031 3.46875 -3.875 C 3.550781 -4.050781 3.59375 -4.253906 3.59375 -4.484375 C 3.59375 -4.847656 3.476562 -5.140625 3.25 -5.359375 C 3.03125 -5.585938 2.738281 -5.703125 2.375 -5.703125 C 2.15625 -5.703125 1.953125 -5.644531 1.765625 -5.53125 C 1.578125 -5.414062 1.429688 -5.253906 1.328125 -5.046875 C 1.222656 -4.847656 1.171875 -4.617188 1.171875 -4.359375 L 0.453125 -4.359375 C 0.453125 -4.742188 0.53125 -5.085938 0.6875 -5.390625 C 0.851562 -5.703125 1.082031 -5.941406 1.375 -6.109375 C 1.675781 -6.285156 2.007812 -6.375 2.375 -6.375 C 2.75 -6.375 3.082031 -6.296875 3.375 -6.140625 C 3.664062 -5.984375 3.894531 -5.757812 4.0625 -5.46875 C 4.226562 -5.1875 4.3125 -4.859375 4.3125 -4.484375 C 4.3125 -4.140625 4.25 -3.84375 4.125 -3.59375 C 4 -3.34375 3.804688 -3.085938 3.546875 -2.828125 L 1.53125 -0.71875 L 1.53125 -0.671875 L 4.453125 -0.671875 L 4.453125 0 Z M 0.5 0 "/></g></g></g><g fill="#ffffff" fill-opacity="1"><g transform="translate(271.065771, 240.074924)"><g><path d="M 2.375 0.09375 C 1.96875 0.09375 1.609375 0.015625 1.296875 -0.140625 C 0.984375 -0.304688 0.738281 -0.519531 0.5625 -0.78125 C 0.394531 -1.050781 0.3125 -1.34375 0.3125 -1.65625 L 1.03125 -1.65625 C 1.03125 -1.351562 1.148438 -1.097656 1.390625 -0.890625 C 1.640625 -0.679688 1.96875 -0.578125 2.375 -0.578125 C 2.769531 -0.578125 3.09375 -0.6875 3.34375 -0.90625 C 3.601562 -1.125 3.734375 -1.390625 3.734375 -1.703125 C 3.734375 -2.046875 3.609375 -2.328125 3.359375 -2.546875 C 3.109375 -2.765625 2.78125 -2.875 2.375 -2.875 L 1.96875 -2.875 L 1.96875 -3.546875 L 2.375 -3.546875 C 2.769531 -3.546875 3.078125 -3.648438 3.296875 -3.859375 C 3.523438 -4.066406 3.640625 -4.332031 3.640625 -4.65625 C 3.640625 -4.84375 3.585938 -5.015625 3.484375 -5.171875 C 3.378906 -5.335938 3.226562 -5.46875 3.03125 -5.5625 C 2.84375 -5.65625 2.625 -5.703125 2.375 -5.703125 C 2.144531 -5.703125 1.929688 -5.65625 1.734375 -5.5625 C 1.546875 -5.46875 1.394531 -5.335938 1.28125 -5.171875 C 1.175781 -5.015625 1.125 -4.847656 1.125 -4.671875 L 0.40625 -4.671875 C 0.40625 -4.972656 0.488281 -5.253906 0.65625 -5.515625 C 0.820312 -5.773438 1.054688 -5.984375 1.359375 -6.140625 C 1.660156 -6.296875 2 -6.375 2.375 -6.375 C 2.757812 -6.375 3.101562 -6.296875 3.40625 -6.140625 C 3.707031 -5.992188 3.941406 -5.785156 4.109375 -5.515625 C 4.273438 -5.253906 4.359375 -4.960938 4.359375 -4.640625 C 4.359375 -4.285156 4.253906 -3.984375 4.046875 -3.734375 C 3.847656 -3.492188 3.625 -3.328125 3.375 -3.234375 L 3.375 -3.1875 C 3.644531 -3.09375 3.890625 -2.914062 4.109375 -2.65625 C 4.335938 -2.394531 4.453125 -2.078125 4.453125 -1.703125 C 4.453125 -1.378906 4.363281 -1.078125 4.1875 -0.796875 C 4.007812 -0.523438 3.757812 -0.304688 3.4375 -0.140625 C 3.125 0.015625 2.769531 0.09375 2.375 0.09375 Z M 2.375 0.09375 "/></g></g></g><g fill="#bd3838" fill-opacity="1"><g transform="translate(137.249849, 138.550025)"><g><path d="M 2.59375 -1.78125 L 5.859375 -1.78125 C 6.117188 -1.78125 6.304688 -1.75 6.421875 -1.6875 C 6.546875 -1.625 6.628906 -1.523438 6.671875 -1.390625 C 6.710938 -1.265625 6.734375 -1.097656 6.734375 -0.890625 C 6.734375 -0.679688 6.710938 -0.507812 6.671875 -0.375 C 6.628906 -0.25 6.5625 -0.164062 6.46875 -0.125 C 6.320312 -0.0390625 6.113281 0 5.84375 0 L 1.53125 0 C 0.96875 0 0.640625 -0.148438 0.546875 -0.453125 C 0.503906 -0.578125 0.484375 -0.78125 0.484375 -1.0625 L 0.484375 -7.734375 C 0.484375 -7.910156 0.488281 -8.046875 0.5 -8.140625 C 0.507812 -8.234375 0.546875 -8.34375 0.609375 -8.46875 C 0.722656 -8.675781 1.035156 -8.78125 1.546875 -8.78125 C 2.109375 -8.78125 2.441406 -8.632812 2.546875 -8.34375 C 2.578125 -8.207031 2.59375 -8 2.59375 -7.71875 Z M 2.59375 -1.78125 "/></g></g></g><g fill="#bd3838" fill-opacity="1"><g transform="translate(144.282095, 138.550025)"><g><path d="M 0.484375 -7.734375 C 0.484375 -7.910156 0.488281 -8.046875 0.5 -8.140625 C 0.507812 -8.234375 0.546875 -8.34375 0.609375 -8.46875 C 0.722656 -8.675781 1.035156 -8.78125 1.546875 -8.78125 C 2.109375 -8.78125 2.441406 -8.632812 2.546875 -8.34375 C 2.578125 -8.207031 2.59375 -8 2.59375 -7.71875 L 2.59375 -1.046875 C 2.59375 -0.859375 2.585938 -0.71875 2.578125 -0.625 C 2.566406 -0.539062 2.53125 -0.441406 2.46875 -0.328125 C 2.351562 -0.109375 2.039062 0 1.53125 0 C 0.96875 0 0.640625 -0.148438 0.546875 -0.453125 C 0.503906 -0.578125 0.484375 -0.78125 0.484375 -1.0625 Z M 0.484375 -7.734375 "/></g></g></g><g fill="#bd3838" fill-opacity="1"><g transform="translate(147.36094, 138.550025)"><g><path d="M 5.96875 -2.296875 L 6.1875 -2.453125 C 6.457031 -2.617188 6.648438 -2.703125 6.765625 -2.703125 C 7.003906 -2.703125 7.269531 -2.476562 7.5625 -2.03125 C 7.738281 -1.75 7.828125 -1.523438 7.828125 -1.359375 C 7.828125 -1.191406 7.769531 -1.050781 7.65625 -0.9375 C 7.550781 -0.820312 7.425781 -0.71875 7.28125 -0.625 C 7.144531 -0.539062 7.007812 -0.457031 6.875 -0.375 C 6.738281 -0.300781 6.46875 -0.195312 6.0625 -0.0625 C 5.65625 0.0625 5.257812 0.125 4.875 0.125 C 4.5 0.125 4.117188 0.0703125 3.734375 -0.03125 C 3.347656 -0.132812 2.945312 -0.300781 2.53125 -0.53125 C 2.125 -0.769531 1.753906 -1.054688 1.421875 -1.390625 C 1.097656 -1.734375 0.828125 -2.171875 0.609375 -2.703125 C 0.398438 -3.234375 0.296875 -3.8125 0.296875 -4.4375 C 0.296875 -5.0625 0.398438 -5.625 0.609375 -6.125 C 0.816406 -6.632812 1.082031 -7.054688 1.40625 -7.390625 C 1.726562 -7.722656 2.097656 -8 2.515625 -8.21875 C 3.296875 -8.65625 4.082031 -8.875 4.875 -8.875 C 5.25 -8.875 5.628906 -8.8125 6.015625 -8.6875 C 6.410156 -8.570312 6.707031 -8.457031 6.90625 -8.34375 L 7.1875 -8.171875 C 7.332031 -8.085938 7.445312 -8.015625 7.53125 -7.953125 C 7.738281 -7.785156 7.84375 -7.597656 7.84375 -7.390625 C 7.84375 -7.179688 7.757812 -6.957031 7.59375 -6.71875 C 7.28125 -6.289062 7 -6.078125 6.75 -6.078125 C 6.601562 -6.078125 6.398438 -6.164062 6.140625 -6.34375 C 5.796875 -6.613281 5.347656 -6.75 4.796875 -6.75 C 4.273438 -6.75 3.765625 -6.566406 3.265625 -6.203125 C 3.023438 -6.023438 2.820312 -5.773438 2.65625 -5.453125 C 2.5 -5.140625 2.421875 -4.78125 2.421875 -4.375 C 2.421875 -3.976562 2.5 -3.617188 2.65625 -3.296875 C 2.820312 -2.972656 3.023438 -2.722656 3.265625 -2.546875 C 3.753906 -2.191406 4.265625 -2.015625 4.796875 -2.015625 C 5.046875 -2.015625 5.28125 -2.046875 5.5 -2.109375 C 5.71875 -2.171875 5.875 -2.234375 5.96875 -2.296875 Z M 5.96875 -2.296875 "/></g></g></g><g fill="#bd3838" fill-opacity="1"><g transform="translate(155.49534, 138.550025)"><g><path d="M 2.59375 -2.125 L 6.296875 -2.125 C 6.472656 -2.125 6.609375 -2.113281 6.703125 -2.09375 C 6.796875 -2.082031 6.898438 -2.046875 7.015625 -1.984375 C 7.234375 -1.878906 7.34375 -1.566406 7.34375 -1.046875 C 7.34375 -0.492188 7.195312 -0.171875 6.90625 -0.078125 C 6.769531 -0.0234375 6.5625 0 6.28125 0 L 1.53125 0 C 0.96875 0 0.640625 -0.148438 0.546875 -0.453125 C 0.503906 -0.578125 0.484375 -0.78125 0.484375 -1.0625 L 0.484375 -7.734375 C 0.484375 -8.140625 0.554688 -8.414062 0.703125 -8.5625 C 0.859375 -8.707031 1.144531 -8.78125 1.5625 -8.78125 L 6.296875 -8.78125 C 6.472656 -8.78125 6.609375 -8.773438 6.703125 -8.765625 C 6.796875 -8.753906 6.898438 -8.71875 7.015625 -8.65625 C 7.234375 -8.539062 7.34375 -8.226562 7.34375 -7.71875 C 7.34375 -7.15625 7.195312 -6.828125 6.90625 -6.734375 C 6.769531 -6.679688 6.5625 -6.65625 6.28125 -6.65625 L 2.59375 -6.65625 L 2.59375 -5.453125 L 4.96875 -5.453125 C 5.15625 -5.453125 5.296875 -5.445312 5.390625 -5.4375 C 5.484375 -5.425781 5.585938 -5.390625 5.703125 -5.328125 C 5.921875 -5.210938 6.03125 -4.898438 6.03125 -4.390625 C 6.03125 -3.828125 5.878906 -3.5 5.578125 -3.40625 C 5.441406 -3.351562 5.234375 -3.328125 4.953125 -3.328125 L 2.59375 -3.328125 Z M 2.59375 -2.125 "/></g></g></g><g fill="#bd3838" fill-opacity="1"><g transform="translate(163.138559, 138.550025)"><g><path d="M 7.203125 -1.484375 C 7.316406 -1.191406 7.375 -0.984375 7.375 -0.859375 C 7.375 -0.554688 7.128906 -0.300781 6.640625 -0.09375 C 6.378906 0.0195312 6.171875 0.078125 6.015625 0.078125 C 5.859375 0.078125 5.726562 0.0390625 5.625 -0.03125 C 5.53125 -0.113281 5.460938 -0.195312 5.421875 -0.28125 C 5.335938 -0.425781 5.023438 -1.144531 4.484375 -2.4375 L 4.109375 -2.421875 L 2.59375 -2.421875 L 2.59375 -1.0625 C 2.59375 -0.882812 2.585938 -0.75 2.578125 -0.65625 C 2.566406 -0.5625 2.53125 -0.453125 2.46875 -0.328125 C 2.351562 -0.117188 2.039062 -0.015625 1.53125 -0.015625 C 0.96875 -0.015625 0.640625 -0.160156 0.546875 -0.453125 C 0.503906 -0.585938 0.484375 -0.796875 0.484375 -1.078125 L 0.484375 -7.734375 C 0.484375 -7.910156 0.488281 -8.046875 0.5 -8.140625 C 0.507812 -8.234375 0.546875 -8.34375 0.609375 -8.46875 C 0.722656 -8.675781 1.035156 -8.78125 1.546875 -8.78125 L 4.140625 -8.78125 C 4.835938 -8.78125 5.519531 -8.523438 6.1875 -8.015625 C 6.5 -7.765625 6.757812 -7.425781 6.96875 -7 C 7.175781 -6.582031 7.28125 -6.113281 7.28125 -5.59375 C 7.28125 -4.695312 6.984375 -3.957031 6.390625 -3.375 C 6.566406 -2.945312 6.835938 -2.316406 7.203125 -1.484375 Z M 2.59375 -4.546875 L 4.140625 -4.546875 C 4.367188 -4.546875 4.597656 -4.628906 4.828125 -4.796875 C 5.054688 -4.972656 5.171875 -5.238281 5.171875 -5.59375 C 5.171875 -5.945312 5.054688 -6.210938 4.828125 -6.390625 C 4.597656 -6.566406 4.359375 -6.65625 4.109375 -6.65625 L 2.59375 -6.65625 Z M 2.59375 -4.546875 "/></g></g></g><g fill="#bd3838" fill-opacity="1"><g transform="translate(170.697919, 138.550025)"><g><path d="M 0.484375 -7.734375 C 0.484375 -7.910156 0.488281 -8.046875 0.5 -8.140625 C 0.507812 -8.234375 0.546875 -8.34375 0.609375 -8.46875 C 0.722656 -8.675781 1.035156 -8.78125 1.546875 -8.78125 C 2.109375 -8.78125 2.441406 -8.632812 2.546875 -8.34375 C 2.578125 -8.207031 2.59375 -8 2.59375 -7.71875 L 2.59375 -1.046875 C 2.59375 -0.859375 2.585938 -0.71875 2.578125 -0.625 C 2.566406 -0.539062 2.53125 -0.441406 2.46875 -0.328125 C 2.351562 -0.109375 2.039062 0 1.53125 0 C 0.96875 0 0.640625 -0.148438 0.546875 -0.453125 C 0.503906 -0.578125 0.484375 -0.78125 0.484375 -1.0625 Z M 0.484375 -7.734375 "/></g></g></g><g fill="#bd3838" fill-opacity="1"><g transform="translate(173.776765, 138.550025)"><g><path d="M 5.546875 -8.15625 L 8.78125 -1.46875 C 8.914062 -1.195312 8.984375 -0.992188 8.984375 -0.859375 C 8.984375 -0.578125 8.753906 -0.316406 8.296875 -0.078125 C 8.023438 0.0546875 7.8125 0.125 7.65625 0.125 C 7.5 0.125 7.367188 0.0859375 7.265625 0.015625 C 7.171875 -0.0546875 7.097656 -0.128906 7.046875 -0.203125 C 7.003906 -0.285156 6.941406 -0.410156 6.859375 -0.578125 L 6.25 -1.875 L 2.921875 -1.875 L 2.296875 -0.578125 C 2.222656 -0.410156 2.160156 -0.289062 2.109375 -0.21875 C 2.066406 -0.15625 1.992188 -0.0820312 1.890625 0 C 1.796875 0.0703125 1.671875 0.109375 1.515625 0.109375 C 1.359375 0.109375 1.144531 0.0390625 0.875 -0.09375 C 0.414062 -0.320312 0.1875 -0.578125 0.1875 -0.859375 C 0.1875 -0.992188 0.253906 -1.195312 0.390625 -1.46875 L 3.625 -8.171875 C 3.707031 -8.359375 3.835938 -8.503906 4.015625 -8.609375 C 4.203125 -8.722656 4.394531 -8.78125 4.59375 -8.78125 C 5.019531 -8.78125 5.335938 -8.570312 5.546875 -8.15625 Z M 4.578125 -5.28125 L 3.78125 -3.640625 L 5.375 -3.640625 Z M 4.578125 -5.28125 "/></g></g></g></svg>